<?xml version="1.0" encoding="iso-8859-1"?>
<!-- Uploaded to: SVG Repo, www.svgrepo.com, Generator: SVG Repo Mixer Tools -->
<svg fill="#ffffff" height="800px" width="800px" version="1.1" id="Capa_1" xmlns="http://www.w3.org/2000/svg" xmlns:xlink="http://www.w3.org/1999/xlink" 
	 viewBox="0 0 58 58" xml:space="preserve">
<g>
	<g>
		<path d="M24.5,26c-1.93,0-3.5,1.57-3.5,3.5s1.57,3.5,3.5,3.5s3.5-1.57,3.5-3.5S26.43,26,24.5,26z M24.5,31
			c-0.827,0-1.5-0.673-1.5-1.5s0.673-1.5,1.5-1.5s1.5,0.673,1.5,1.5S25.327,31,24.5,31z"/>
		<path d="M44.5,26c-1.93,0-3.5,1.57-3.5,3.5s1.57,3.5,3.5,3.5s3.5-1.57,3.5-3.5S46.43,26,44.5,26z M44.5,31
			c-0.827,0-1.5-0.673-1.5-1.5s0.673-1.5,1.5-1.5s1.5,0.673,1.5,1.5S45.327,31,44.5,31z"/>
		<path d="M53,44V27.5C53,17.299,44.699,9,34.495,9H23.505C13.301,9,5,17.299,5,27.5V44H0v2h6h1h7v2c0,0.552,0.448,1,1,1h3h2h1h2h3
			c0.552,0,1-0.448,1-1v-2h10v2c0,0.552,0.448,1,1,1h3h2h1h2h3c0.552,0,1-0.448,1-1v-2h1h1h6v-2H53z M25,47h-2v-3h-2v3h-1v-3h-2v3
			h-2v-1v-1c0-1.103,0.9-2,2.006-2h4.988C24.1,43,25,43.897,25,45V47z M48,47h-2v-3h-2v3h-1v-3h-2v3h-2v-1v-1c0-1.103,0.9-2,2.006-2
			h4.988C47.1,43,48,43.897,48,45v1V47z M49.858,44c-0.448-1.72-2.002-3-3.864-3h-4.988c-1.861,0-3.416,1.28-3.864,3H26.858
			c-0.448-1.72-2.003-3-3.864-3h-4.988c-1.861,0-3.416,1.28-3.864,3H7V27.5C7,18.402,14.404,11,23.505,11h10.989
			C43.596,11,51,18.402,51,27.5V44H49.858z"/>
	</g>
</g>
</svg>